<svg width="26" height="23" viewBox="0 0 26 23" fill="none" xmlns="http://www.w3.org/2000/svg">
<path d="M7.51581 17.7098C6.37989 17.6522 6.40128 16.0679 7.51576 16.0129C10.6727 16.0238 18.9995 16.0158 22.2569 16.0181C23.1478 16.0181 23.91 15.4169 24.1104 14.5561L25.96 6.61379C26.066 6.15904 25.9591 5.68837 25.6668 5.32254C25.3746 4.95672 24.937 4.74395 24.4664 4.74395C23.156 4.74395 12.0328 4.69402 6.33554 4.6715L5.43242 1.34863C5.21562 0.554559 4.48484 0 3.65525 0H0.762124C0.341228 0 0 0.338368 0 0.755735C0 1.1731 0.341228 1.51147 0.762124 1.51147H3.65525C3.79807 1.51147 3.92382 1.60695 3.96096 1.74283L7.42939 14.5035C6.81953 14.5254 6.2515 14.7714 5.82075 15.2048C5.36815 15.6602 5.12508 16.2631 5.13631 16.9024C5.15877 18.181 6.2262 19.2212 7.51581 19.2212H8.62709C8.46191 19.565 8.36919 19.9493 8.36919 20.3548C8.36919 21.8134 9.56582 23 11.0367 23C12.5076 23 13.7043 21.8134 13.7043 20.3548C13.7043 19.9493 13.6115 19.565 13.4463 19.2212H18.2587C18.0936 19.5649 18.0009 19.949 18.0009 20.3544C18.0009 21.813 19.1976 22.9996 20.6684 22.9996C22.1393 22.9996 23.336 21.8129 23.336 20.3544C23.336 19.9333 23.2357 19.5351 23.0584 19.1813C23.36 19.0806 23.5775 18.7985 23.5775 18.4655C23.5775 18.0481 23.2362 17.7098 22.8153 17.7098H7.51581ZM12.18 20.3549C12.18 20.98 11.6671 21.4886 11.0367 21.4886C10.4062 21.4886 9.89338 20.98 9.89338 20.3549C9.89338 19.7301 10.4057 19.2217 11.0357 19.2212H11.0376C11.6676 19.2217 12.18 19.7301 12.18 20.3549ZM20.6685 21.4882C20.0381 21.4882 19.5252 20.9796 19.5252 20.3545C19.5252 19.7355 20.0281 19.2311 20.6499 19.2212H20.6871C21.309 19.2311 21.8119 19.7355 21.8119 20.3545C21.8118 20.9796 21.2989 21.4882 20.6685 21.4882ZM24.472 6.26097C24.4765 6.26661 24.4759 6.26928 24.4749 6.27361L23.6955 9.62026H21.0565L21.5059 6.24348L24.4603 6.25527C24.4648 6.25537 24.4675 6.25537 24.472 6.26097ZM16.6148 14.5065V11.1317H19.3179L18.8687 14.5065H16.6148ZM12.8355 14.5065L12.3827 11.1317H15.0905V14.5065H12.8355ZM9.32708 14.5065H9.32469C9.13893 14.5065 8.97528 14.3822 8.92696 14.2053L8.09157 11.1317H10.845L11.2978 14.5065H9.32708ZM12.1799 9.62031L11.7216 6.20444L15.0905 6.21789V9.62031H12.1799ZM16.6148 9.62031V6.22398L19.9692 6.23739L19.519 9.62031H16.6148ZM10.183 6.19824L10.6422 9.62026H7.68074L6.74688 6.18448L10.183 6.19824ZM22.2569 14.5065H20.4061L20.8553 11.1317H23.3435L22.6252 14.216C22.5854 14.3871 22.4339 14.5065 22.2569 14.5065Z" fill="#626060"/>
</svg>
