<svg xmlns="http://www.w3.org/2000/svg" width="24" height="25" viewBox="0 0 24 25" fill="none">
    <path d="M10.4059 3.35699C10.8035 3.35699 11.1259 3.03463 11.1259 2.63699C11.1259 2.23935 10.8035 1.91699 10.4059 1.91699H4.88954C3.16639 1.91699 1.76953 3.31387 1.76953 5.03699V19.0202C1.76953 20.7433 3.16639 22.1402 4.88952 22.1402H10.4059C10.8035 22.1402 11.1259 21.8178 11.1259 21.4202C11.1259 21.0225 10.8035 20.7002 10.4059 20.7002H4.88952C3.9617 20.7002 3.20952 19.948 3.20952 19.0202L3.20954 5.03699C3.20954 4.10915 3.9617 3.35699 4.88954 3.35699H10.4059Z" fill="#707070"/>
    <path d="M17.2853 6.47078C17.0041 6.18959 16.5483 6.18959 16.2671 6.47078C15.9859 6.75196 15.9859 7.20782 16.2671 7.489L19.8312 11.0531H6.71939C6.32176 11.0531 5.99939 11.3754 5.99939 11.7731C5.99939 12.1707 6.32176 12.4931 6.71939 12.4931H19.7815L16.2672 16.0074C15.986 16.2885 15.986 16.7444 16.2672 17.0256C16.5484 17.3068 17.0043 17.3068 17.2854 17.0256L22.0195 12.2916C22.1601 12.151 22.2304 11.9666 22.2304 11.7823L22.2304 11.7731C22.2304 11.7624 22.2302 11.7517 22.2297 11.7411C22.2369 11.5479 22.1668 11.3523 22.0193 11.2048L17.2853 6.47078Z" fill="#707070"/>
</svg>