<svg width="120" height="93" viewBox="0 0 120 93" fill="none" xmlns="http://www.w3.org/2000/svg">
<g clip-path="url(#clip0_519_46)">
<path fill-rule="evenodd" clip-rule="evenodd" d="M3.71936 92.9707H119.826V70.8595H3.71936V92.9707ZM43.8875 87.0741C42.5021 85.6628 41.8788 83.6881 41.8788 81.8971C41.8788 80.2552 42.5469 78.2304 44.0086 76.7707C45.1534 75.6275 46.7831 74.8291 48.9561 74.8291C51.0128 74.8291 52.8069 75.4986 54.0724 76.7131C55.2902 77.8824 56.0162 79.5531 56.0162 81.6154C56.0162 83.6837 55.2719 85.5693 53.9642 86.9186C52.7172 88.2043 50.9605 89.001 48.8507 89.001C46.6469 89.001 45.0156 88.2244 43.8875 87.0741ZM45.1983 77.2749C44.3724 78.2114 43.8805 79.5879 43.8805 81.4028C43.8805 83.377 44.4561 85.0037 45.4048 86.1463C46.3848 87.3259 47.7669 87.9922 49.3247 87.9922C50.235 87.9922 51.7269 87.6756 52.7756 86.3639C53.4859 85.4757 53.9966 84.1275 53.9966 82.1092C53.9966 80.1513 53.441 78.6236 52.5696 77.5599C51.6032 76.3802 50.2469 75.7673 48.8334 75.7673C47.362 75.7673 46.0837 76.2709 45.1983 77.2749ZM101.764 80.4265C100.922 79.4933 100.202 78.6862 99.76 78.1896L99.9756 86.1811C99.9924 86.8849 100.043 87.3471 100.144 87.643C100.23 87.8932 100.356 88.0139 100.536 88.0683C100.661 88.1015 100.797 88.1249 100.923 88.1401C101.109 88.1624 101.276 88.1689 101.366 88.1689C101.446 88.1689 101.516 88.1896 101.571 88.2304C101.637 88.2804 101.674 88.3522 101.674 88.4436C101.674 88.5725 101.613 88.6589 101.492 88.7095C101.416 88.7405 101.317 88.7536 101.191 88.7536C100.479 88.7536 99.9108 88.7258 99.5881 88.7106L99.3346 88.7008L99.0416 88.7122C98.7157 88.728 98.1908 88.7536 97.6481 88.7536C97.5421 88.7536 97.4529 88.747 97.38 88.7171C97.2638 88.6687 97.1994 88.585 97.1994 88.4436C97.1994 88.3522 97.2367 88.2804 97.3027 88.2298C97.3573 88.1896 97.4281 88.1689 97.5081 88.1689C97.5848 88.1689 97.7211 88.1629 97.8697 88.1406C97.9729 88.126 98.08 88.1037 98.174 88.0721L98.1821 88.0688C98.3346 88.0264 98.4302 87.9024 98.4908 87.6305C98.5638 87.302 98.5843 86.7821 98.5843 85.9908L98.6027 75.8799C98.6021 75.5242 98.6173 75.2914 98.6502 75.144C98.7032 74.9123 98.8065 74.8286 98.9632 74.8286C99.1405 74.8286 99.3605 75.0728 99.547 75.2805L99.7059 75.4502C99.8638 75.6313 100.676 76.5178 101.793 77.7323L105.273 81.5001C106.186 82.4845 107.142 83.5407 107.925 84.407L109.177 85.7857L108.993 77.2596C108.985 76.706 108.952 76.3383 108.86 76.1023C108.783 75.9038 108.652 75.7999 108.44 75.7444C108.321 75.7178 108.187 75.6988 108.062 75.6863C107.875 75.6672 107.703 75.6607 107.621 75.6607C107.506 75.6607 107.432 75.6259 107.381 75.571C107.325 75.5073 107.312 75.4399 107.312 75.3681C107.312 75.2229 107.393 75.144 107.531 75.1043C107.611 75.0815 107.713 75.076 107.831 75.076C108.353 75.076 108.91 75.1 109.279 75.1152L109.652 75.1288L109.97 75.1152C110.255 75.0989 110.672 75.076 111.145 75.076C111.256 75.076 111.351 75.082 111.425 75.1054C111.557 75.1478 111.629 75.2262 111.629 75.3681C111.629 75.4638 111.584 75.5459 111.499 75.6003C111.438 75.6384 111.359 75.6607 111.269 75.6607L111.12 75.6656C111.061 75.6716 110.985 75.6841 110.888 75.708L110.882 75.7091C110.657 75.757 110.53 75.8538 110.464 76.0365C110.383 76.2573 110.366 76.6037 110.366 77.1144L110.331 87.4543C110.332 88.0444 110.322 88.3653 110.297 88.5415C110.255 88.8368 110.159 88.8765 110.006 88.8765C109.894 88.8765 109.774 88.8177 109.55 88.6203C109.366 88.4583 109.078 88.1733 108.61 87.7028C108.493 87.5957 107.524 86.6042 106.366 85.3936C105.605 84.5985 104.763 83.7071 104.029 82.9109C103.206 82.0168 102.43 81.164 101.764 80.426L101.764 80.4265ZM77.2654 76.5608C77.2302 77.1193 77.2302 77.6131 77.2302 80.3618V83.4678C77.2302 84.3266 77.2308 85.1103 77.2411 85.7368C77.2513 86.3818 77.274 86.9104 77.3167 87.277C77.3411 87.5147 77.3762 87.7197 77.4589 87.8622C77.5313 87.9867 77.6529 88.0727 77.8567 88.0999L78.2843 88.1488C78.4184 88.1608 78.5454 88.1689 78.6232 88.1689C78.7086 88.1689 78.7757 88.1929 78.8248 88.2298C78.9011 88.2853 78.9313 88.3658 78.9313 88.4436C78.9313 88.5551 78.8784 88.6432 78.7686 88.6986C78.6989 88.7345 78.6032 88.7536 78.4832 88.7536C77.7481 88.7536 76.9162 88.722 76.5308 88.7073L76.3265 88.7008L76.0384 88.7111C75.6492 88.7269 74.9762 88.7541 74.607 88.7541C74.4881 88.7541 74.3946 88.74 74.3238 88.7068C74.2124 88.653 74.1589 88.5681 74.1589 88.4436C74.1589 88.3663 74.1892 88.2858 74.2648 88.2293C74.3151 88.1928 74.3827 88.1689 74.467 88.1689C74.5313 88.1689 74.6059 88.1624 74.6794 88.1526L74.9578 88.1026C75.0729 88.0797 75.147 87.9987 75.1989 87.8796C75.2648 87.7295 75.3021 87.5179 75.3351 87.277C75.4211 86.5477 75.4216 85.157 75.4216 83.4683L75.4173 77.6376C75.4135 77.109 75.4043 76.8447 75.3865 76.5619C75.3713 76.2883 75.3254 76.0876 75.2443 75.9522C75.1729 75.8331 75.067 75.7602 74.9216 75.7276L74.9135 75.7254C74.84 75.7058 74.7556 75.6901 74.6762 75.6797C74.5751 75.6672 74.4794 75.6618 74.4146 75.6618C74.3432 75.6618 74.2692 75.64 74.2135 75.5987C74.1475 75.5492 74.1059 75.479 74.1059 75.3871C74.1059 75.261 74.16 75.1783 74.2697 75.125C74.3421 75.0907 74.4356 75.0771 74.5546 75.0771C74.9648 75.0771 75.6621 75.1049 76.0519 75.1201L76.3259 75.1299L76.6135 75.1196C77.0021 75.1038 77.6751 75.0771 78.0443 75.0771C78.1648 75.0771 78.2584 75.0907 78.3286 75.1239C78.4394 75.1783 78.4929 75.261 78.4929 75.3871C78.4929 75.479 78.4513 75.5492 78.3875 75.5976C78.3302 75.64 78.2556 75.6618 78.1848 75.6618L78.02 75.6732L77.774 75.7124C77.5902 75.7466 77.4719 75.8195 77.4 75.9381C77.3184 76.0729 77.2811 76.2785 77.2654 76.5608ZM21.8653 88.8879C21.2642 88.9646 20.5955 89.001 19.9907 89.001C18.6577 89.001 17.5393 88.8341 16.5772 88.5083C15.6091 88.1809 14.7999 87.6925 14.0912 87.0513C13.2177 86.2627 12.6724 85.3517 12.3464 84.4239C12.021 83.4993 11.9134 82.5579 11.9134 81.703C11.9134 81.0101 12.0496 80.0186 12.4664 78.9962C12.7766 78.2337 13.2442 77.4538 13.9269 76.7669C14.4675 76.223 15.1485 75.7368 16.0415 75.3882C16.9285 75.0412 18.0232 74.8291 19.3945 74.8291C19.7837 74.8291 20.2583 74.8454 20.7486 74.8857C21.1507 74.9194 21.5707 74.9705 21.9675 75.044L22.0037 75.0505C22.648 75.1701 23.1939 75.2718 23.7366 75.3061C23.8793 75.3181 23.9696 75.3583 24.0301 75.4181C24.1026 75.4916 24.1221 75.5742 24.1221 75.6688C24.1221 75.7325 24.1134 75.8037 24.101 75.9076C24.0832 76.0577 24.0551 76.2861 24.034 76.6663C24.014 77.0067 24.0048 77.4696 23.9983 77.8486L23.9815 78.4855C23.9718 78.6345 23.9545 78.7438 23.9237 78.8216C23.8697 78.9543 23.7842 79.0141 23.6561 79.0141C23.508 79.0141 23.4237 78.9429 23.3799 78.8031C23.3539 78.7204 23.348 78.6122 23.348 78.4746C23.348 78.1467 23.2804 77.81 23.1588 77.5131C23.042 77.2281 22.8751 76.9768 22.6707 76.8033C22.3642 76.539 21.8561 76.2861 21.2259 76.1056C20.6551 75.9419 19.9842 75.838 19.2718 75.838C18.1286 75.838 17.2923 76.0055 16.6701 76.2453C16.0555 76.4825 15.648 76.7914 15.3551 77.0775C14.7372 77.6735 14.3551 78.3517 14.1291 79.0968C13.901 79.8479 13.828 80.6756 13.828 81.5621C13.828 83.2562 14.4961 84.8775 15.6453 86.049C16.7209 87.147 18.2215 87.8513 19.9907 87.8513C20.6355 87.8513 21.2118 87.8121 21.7064 87.6865C22.1869 87.5641 22.595 87.3575 22.9209 87.0219C23.0566 86.8783 23.1751 86.6695 23.2691 86.4536C23.408 86.1354 23.4967 85.8053 23.5259 85.6275C23.5464 85.5089 23.5713 85.4235 23.6118 85.3599C23.6718 85.2636 23.7513 85.2217 23.8664 85.2217C23.9815 85.2217 24.0605 85.287 24.108 85.3887C24.1421 85.4616 24.1572 85.5584 24.1572 85.6557C24.1572 85.7362 24.0761 86.3622 23.9729 86.9686C23.9086 87.3477 23.8339 87.724 23.7642 87.9617C23.7031 88.1553 23.6615 88.2641 23.5794 88.3555C23.4972 88.4474 23.3945 88.4996 23.215 88.5795L23.2091 88.5828C22.8697 88.7193 22.3928 88.8199 21.8653 88.8879Z" fill="white"/>
<path fill-rule="evenodd" clip-rule="evenodd" d="M52.2708 57.5518C53.9551 59.7239 56.307 61.0085 58.9411 61.0085C60.8627 61.0085 62.5016 60.5849 63.8681 59.9431C65.5319 59.1616 66.7978 58.0559 67.6876 56.997C66.5238 55.8392 65.0146 54.2044 63.5751 52.5914C61.6557 50.4415 59.8519 48.3213 59.1503 47.4148C58.4038 46.4505 56.9973 44.5903 55.6951 42.7359C54.9 41.6048 54.147 40.4795 53.6151 39.5734C52.4086 40.5643 51.3762 41.8418 50.6595 43.4459C49.9865 44.9542 49.5903 46.7563 49.5903 48.8861C49.5903 52.39 50.6065 55.4046 52.2708 57.5518ZM69.2486 58.3948C67.9649 59.948 64.1578 64.4958 57.2665 64.4958C53.5881 64.4958 50.8762 63.0366 48.9816 60.9694C46.4886 58.2495 45.4173 54.4719 45.4173 51.5845C45.4173 48.5254 46.1541 45.9212 47.3086 43.7383C48.6827 41.1424 50.6476 39.1452 52.6665 37.6849C51.8286 36.2454 51.2659 34.947 50.9108 33.6961C50.54 32.3893 50.3935 31.1344 50.3935 29.824C50.3935 27.3 51.5681 24.3234 53.6941 22.1406C55.473 20.3138 57.9195 19.0375 60.9032 19.0375C62.1054 19.0375 63.22 19.1759 64.1995 19.4187C65.2405 19.6765 66.1308 20.0542 66.8151 20.5103L66.82 20.5132C67.1465 20.7417 67.3265 20.9609 67.4265 21.2271C67.5227 21.4827 67.5368 21.7623 67.5368 22.1306C67.5368 23.0151 67.4849 24.5228 67.4157 25.8958C67.3508 27.1808 67.2686 28.3456 67.1984 28.7698C67.1216 29.2292 67.0405 29.4975 66.9513 29.6543C66.8216 29.8823 66.6735 29.9311 66.5027 29.9311C66.2686 29.9311 66.1292 29.8309 66.0562 29.5415C66.0086 29.3552 65.9951 29.0663 65.9951 28.6186C65.9951 27.8873 65.9249 27.0579 65.7097 26.2348C65.4962 25.416 65.1368 24.5969 64.5605 23.8772C64.0032 23.1779 63.2811 22.5118 62.413 22.0535C61.6924 21.6732 60.867 21.4336 59.9465 21.4336C58.4281 21.4336 56.8114 22.0516 55.6649 23.4698C54.7195 24.6404 54.0897 26.3603 54.0897 28.7335C54.0897 30.9317 54.7265 32.9521 55.9757 35.2219C57.2357 37.5111 59.1216 40.0599 61.6043 43.2966C62.3443 44.2626 63.9632 46.152 65.6497 48.069C67.5254 50.2012 69.4924 52.3729 70.4319 53.3491C71.0568 52.2606 71.6211 50.8068 72.0292 49.2116C72.4405 47.6062 72.6946 45.853 72.6946 44.1783C72.6946 43.7203 72.6384 43.1958 72.4724 42.6811C72.3405 42.272 72.1373 41.8669 71.8373 41.507C71.5941 41.2155 71.2832 41.0194 70.9568 40.8915C70.5184 40.7202 70.047 40.6679 69.6611 40.6679C69.4654 40.6679 69.2643 40.6217 69.1141 40.5174C68.9643 40.4118 68.8665 40.2574 68.8665 40.0444C68.8665 39.8186 68.9935 39.6601 69.1886 39.5576C69.3692 39.4626 69.6146 39.4205 69.8524 39.4205C70.4254 39.4205 71.1935 39.4351 72.1622 39.4933C73.1205 39.5506 74.2741 39.6517 75.6232 39.8252L75.6297 39.8261C76.0595 39.8944 76.3232 40.0742 76.4811 40.328C76.6335 40.5715 76.6773 40.8684 76.6773 41.1924C76.6773 43.2881 76.1503 45.6102 75.3795 47.8169C74.447 50.4834 73.1551 52.9861 72.0027 54.7161C73.52 56.2536 74.7897 57.4011 75.8422 58.2751C76.9227 59.1725 77.78 59.787 78.447 60.2439C79.2611 60.8247 80.3357 61.4213 81.4211 61.8477C82.3362 62.2072 83.2535 62.4443 84.0178 62.4443C84.2632 62.4443 84.4605 62.4639 84.6124 62.5401C84.8065 62.6379 84.9081 62.7989 84.9081 63.0676C84.9081 63.2732 84.7676 63.4412 84.5476 63.5495C84.3681 63.6376 84.1254 63.6919 83.8741 63.6919H79.1843C77.3805 63.6919 76.1827 63.5875 74.7524 62.8414C73.3741 62.1213 71.7957 60.8035 69.2486 58.3948ZM105.721 64.0264C103.87 64.6437 101.911 64.9178 99.9562 64.9178C98.333 64.9178 96.7232 64.771 95.1622 64.418C93.5978 64.0634 92.0854 63.5 90.6611 62.6668C90.1314 62.3486 89.8465 62.0941 89.6881 61.5959C89.5416 61.1336 89.5232 60.481 89.5232 59.3503C89.5232 56.0458 89.7011 53.2637 89.8059 51.6142L89.8665 50.6168C89.9022 50.1438 89.9584 49.7932 90.053 49.5545C90.1768 49.2434 90.3616 49.0957 90.6346 49.0957C90.9362 49.0957 91.1157 49.1955 91.2265 49.4266C91.3124 49.6086 91.3346 49.8628 91.3346 50.2218C91.3346 50.595 91.3351 51.0734 91.3595 51.5788C91.3849 52.0953 91.4362 52.6629 91.5362 53.2255C92.0005 55.9751 93.1892 57.9325 94.7735 59.2426C96.6286 60.7769 99.0357 61.4306 101.464 61.4306C104.419 61.4306 106.679 60.2607 108.258 58.4997C110.123 56.4189 111.045 53.5086 111.045 50.7153C111.045 47.9166 110.556 45.7077 109.342 43.4823C108.119 41.2414 106.161 38.9735 103.229 36.0701L100.144 33.0274C96.4919 29.4304 94.2497 26.3451 92.9195 23.4541C91.5849 20.5525 91.1681 17.8501 91.1681 15.0248C91.1681 10.532 92.5838 6.75392 95.1184 4.10882C97.6157 1.50275 101.197 0.000177353 105.577 0.000177353C106.92 0.000177353 108.096 0.0836913 109.153 0.228785C110.211 0.37475 111.148 0.582898 112.012 0.831338C112.654 0.993289 113.11 1.09496 113.47 1.1553C113.822 1.21381 114.086 1.23387 114.35 1.23387C114.681 1.23387 114.898 1.29236 115.045 1.42467C115.203 1.56619 115.256 1.76234 115.256 2.03122C115.256 2.11907 115.244 2.31743 115.223 2.62854C115.151 3.74096 114.982 6.35059 114.982 10.7486C114.982 11.4226 114.946 11.9137 114.864 12.2412C114.758 12.6641 114.568 12.8616 114.282 12.8616C113.971 12.8616 113.79 12.7094 113.676 12.4379C113.588 12.2279 113.55 11.9417 113.514 11.5933L113.514 11.5856C113.477 11.0558 113.338 10.1581 113.154 9.30702C113.003 8.60805 112.821 7.94334 112.642 7.55106C112.444 7.11488 111.898 6.06284 110.638 5.11807C109.367 4.16537 107.371 3.32223 104.274 3.32223C101.906 3.32223 99.8027 4.23194 98.3211 5.90833C96.9168 7.49792 96.0643 9.78181 96.0643 12.6399C96.0643 14.9425 96.5016 16.8209 97.7454 18.8772C99.0016 20.9552 101.082 23.2244 104.356 26.2938L106.276 28.1038C110.339 31.9458 112.856 35.154 114.359 38.2313C115.866 41.3207 116.353 44.2706 116.353 47.5907C116.353 49.5724 115.978 52.5379 114.725 55.4737C113.82 57.5937 112.457 59.6995 110.448 61.411C109.017 62.6075 107.414 63.4619 105.721 64.0264ZM33.9276 5.29495L25.5281 5.13522V39.6955C25.5281 43.6745 25.5281 47.3015 25.5697 50.2808C25.6119 53.3161 25.6984 55.7978 25.8686 57.5191C25.9703 58.6906 26.1205 59.7163 26.4892 60.4761C26.8416 61.2032 27.407 61.6949 28.3465 61.8455C28.8324 61.9288 29.4546 62.0114 30.0281 62.0723C30.5838 62.1316 31.0973 62.1708 31.3968 62.1708C31.6422 62.1708 31.8211 62.2436 31.9459 62.3562C32.1027 62.4987 32.1649 62.694 32.1649 62.8865C32.1649 63.178 32.0405 63.4108 31.7789 63.5674C31.5654 63.6963 31.2562 63.7659 30.8481 63.7659C27.9616 63.7659 24.7346 63.6196 23.24 63.5522L22.4286 63.5195C22.3205 63.5195 21.8946 63.5402 21.2903 63.5685C19.7762 63.6408 17.1632 63.7659 15.7119 63.7659C15.2978 63.7659 14.9881 63.7159 14.7719 63.5924C14.5168 63.4472 14.3946 63.2204 14.3946 62.8865C14.3946 62.6934 14.4568 62.4976 14.6151 62.3557C14.74 62.2431 14.9184 62.1708 15.1632 62.1708C15.4324 62.1708 15.7416 62.1387 16.053 62.0887C16.4378 62.0277 16.8314 61.9385 17.1632 61.8499L17.1681 61.8483C17.7692 61.7036 18.1519 61.2185 18.4173 60.4968C18.7005 59.7261 18.853 58.6922 18.9876 57.5153C19.3281 54.0791 19.3286 47.5853 19.3286 39.6953V5.13415L9.40865 5.29475C7.31027 5.33513 5.85838 5.49706 4.80271 5.88848C3.77946 6.26874 3.12703 6.87488 2.60595 7.81298C2.2346 8.50161 1.99676 8.99114 1.82703 9.37761C1.65784 9.76321 1.55784 10.0427 1.45838 10.3206C1.34595 10.6817 1.22702 10.9147 1.09405 11.0616C0.932967 11.2386 0.760535 11.299 0.563238 11.299C0.372428 11.299 0.217831 11.1956 0.117831 10.9892C0.0432363 10.8357 0 10.617 0 10.337C0 10.0295 0.177834 8.91745 0.411888 7.58885C0.826481 5.23614 1.42433 2.1642 1.51298 1.73909L1.54648 1.61704C1.70756 1.0326 1.99027 0 2.41405 0C2.63892 0 2.85838 0.117198 3.15459 0.27469C3.61892 0.521387 4.30378 0.88616 5.44865 0.987763L5.45622 0.98871C6.34703 1.09913 7.35946 1.19329 8.27784 1.26293C9.40432 1.34816 10.3941 1.39787 10.8443 1.39787H36.5362C37.5724 1.39787 38.4708 1.36055 39.2427 1.29527C40.0897 1.22388 40.7849 1.1192 41.3438 0.993088L41.3568 0.990162C41.9092 0.901823 42.3438 0.789206 42.6681 0.705718C42.9622 0.629877 43.1741 0.575246 43.3216 0.575246C43.8849 0.575246 43.8849 1.17963 43.8849 1.78402C43.8849 3.29588 43.8043 6.09449 43.7443 8.20494C43.7086 9.45761 43.6795 10.4653 43.6795 10.8301C43.6795 11.2171 43.6243 11.5091 43.5313 11.7118C43.4032 11.9896 43.2054 12.1209 42.9676 12.1209C42.7016 12.1209 42.5173 12.0273 42.3881 11.7176C42.2919 11.4886 42.2362 11.1172 42.2 10.5177L42.1313 9.61473C42.0341 8.44679 41.5968 7.41471 40.4103 6.65902C39.1838 5.87755 37.1665 5.37573 33.9276 5.29495Z" fill="white"/>
</g>
<defs>
<clipPath id="clip0_519_46">
<rect width="120" height="93" fill="white"/>
</clipPath>
</defs>
</svg>
