<svg width="28" height="25" viewBox="0 0 28 25" fill="none" xmlns="http://www.w3.org/2000/svg">
<path d="M8.09395 19.2497C6.87065 19.1872 6.89369 17.4651 8.0939 17.4053C11.4937 17.4171 20.461 17.4085 23.9689 17.4109C24.9284 17.4109 25.7492 16.7574 25.965 15.8219L27.9569 7.18891C28.071 6.69461 27.9559 6.18301 27.6412 5.78537C27.3264 5.38774 26.8553 5.15647 26.3484 5.15647C24.9372 5.15647 12.9584 5.1022 6.82288 5.07772L5.8503 1.46591C5.61682 0.602781 4.82983 0 3.93642 0H0.820749C0.367477 0 0 0.367791 0 0.821452C0 1.27511 0.367477 1.6429 0.820749 1.6429H3.93642C4.09023 1.6429 4.22565 1.74668 4.26565 1.89438L8.00088 15.7646C7.34411 15.7885 6.73238 16.0559 6.2685 16.5269C5.78108 17.022 5.51932 17.6773 5.53141 18.3722C5.55559 19.7619 6.70513 20.8926 8.09395 20.8926H9.29071C9.11283 21.2663 9.01297 21.6841 9.01297 22.1248C9.01297 23.7102 10.3017 25 11.8857 25C13.4697 25 14.7584 23.7102 14.7584 22.1248C14.7584 21.684 14.6585 21.2663 14.4806 20.8926H19.6632C19.4855 21.2662 19.3856 21.6837 19.3856 22.1244C19.3856 23.7098 20.6743 24.9996 22.2583 24.9996C23.8424 24.9996 25.1311 23.7097 25.1311 22.1244C25.1311 21.6666 25.0231 21.2338 24.8321 20.8492C25.1569 20.7397 25.3911 20.4331 25.3911 20.0712C25.3911 19.6175 25.0236 19.2497 24.5704 19.2497H8.09395ZM13.1169 22.1249C13.1169 22.8044 12.5646 23.3572 11.8856 23.3572C11.2067 23.3572 10.6544 22.8044 10.6544 22.1249C10.6544 21.4457 11.2062 20.8932 11.8846 20.8926H11.8867C12.5651 20.8932 13.1169 21.4457 13.1169 22.1249ZM22.2584 23.3567C21.5795 23.3567 21.0271 22.8039 21.0271 22.1244C21.0271 21.4517 21.5687 20.9034 22.2384 20.8926H22.2784C22.9481 20.9034 23.4897 21.4517 23.4897 22.1244C23.4897 22.8039 22.9373 23.3567 22.2584 23.3567ZM26.3545 6.8054C26.3593 6.81153 26.3586 6.81443 26.3576 6.81914L25.5183 10.4568H22.6762L23.1602 6.78639L26.3419 6.79921C26.3467 6.79932 26.3496 6.79932 26.3545 6.8054ZM17.8928 15.768V12.0997H20.8038L20.3202 15.768H17.8928ZM13.8229 15.768L13.3353 12.0997H16.2513V15.768H13.8229ZM10.0445 15.768H10.042C9.84193 15.7679 9.66568 15.6329 9.61365 15.4405L8.714 12.0997H11.6793L12.1669 15.768H10.0445ZM13.1168 10.4569L12.6232 6.74395L16.2513 6.75857V10.4569H13.1168ZM17.8928 10.4569V6.7652L21.5053 6.77977L21.0205 10.4569H17.8928ZM10.9664 6.73722L11.4608 10.4568H8.27156L7.26587 6.72227L10.9664 6.73722ZM23.9689 15.768H21.9758L22.4595 12.0997H25.1392L24.3656 15.4522C24.3227 15.6381 24.1596 15.768 23.9689 15.768Z" fill="white"/>
</svg>
