<svg xmlns="http://www.w3.org/2000/svg" width="20" height="20" viewBox="0 0 20 20" fill="none">
    <path d="M3.96666 15.6749C3.96666 15.6749 4.03332 15.6749 4.05832 15.6749L6.49999 15.4499C6.84166 15.4166 7.15832 15.2666 7.39999 15.0249L16.6167 5.80825C17.05 5.37492 17.2917 4.79992 17.2917 4.19159C17.2917 3.58325 17.05 3.00825 16.6167 2.57492L16.025 1.98325C15.1583 1.11659 13.65 1.11659 12.7833 1.98325L11.6083 3.15825L3.57499 11.1916C3.33332 11.4333 3.18332 11.7499 3.15832 12.0916L2.93332 14.5333C2.90832 14.8416 3.01666 15.1416 3.23332 15.3666C3.43332 15.5666 3.69166 15.6749 3.96666 15.6749ZM14.4083 2.55825C14.675 2.55825 14.9417 2.65825 15.1417 2.86659L15.7333 3.45825C15.9333 3.65825 16.0417 3.91659 16.0417 4.19159C16.0417 4.46659 15.9333 4.73325 15.7333 4.92492L15 5.65825L12.9417 3.59992L13.675 2.86659C13.875 2.66659 14.1417 2.55825 14.4083 2.55825ZM4.39999 12.2083C4.39999 12.1583 4.42499 12.1166 4.45832 12.0833L12.05 4.48325L14.1083 6.54159L6.51666 14.1333C6.51666 14.1333 6.43332 14.1916 6.39166 14.1916L4.19999 14.3916L4.39999 12.1999V12.2083ZM18.9583 18.3333C18.9583 18.6749 18.675 18.9583 18.3333 18.9583H1.66666C1.32499 18.9583 1.04166 18.6749 1.04166 18.3333C1.04166 17.9916 1.32499 17.7083 1.66666 17.7083H18.3333C18.675 17.7083 18.9583 17.9916 18.9583 18.3333Z" fill="#424242"/>
</svg>