<svg width="22" height="19" viewBox="0 0 22 19" fill="none" xmlns="http://www.w3.org/2000/svg">
<path d="M11 19C10.8887 19 10.7775 18.9713 10.6778 18.9138C10.5695 18.8514 7.99691 17.3599 5.38743 15.1125C3.84082 13.7805 2.60624 12.4594 1.71808 11.1859C0.568758 9.53795 -0.00921315 7.95286 0.000111035 6.47457C0.0110251 4.75441 0.628011 3.13671 1.73755 1.91942C2.86582 0.681629 4.37152 0 5.97739 0C8.03545 0 9.91709 1.15121 11 2.97486C12.083 1.15125 13.9646 0 16.0227 0C17.5398 0 18.9873 0.615036 20.0986 1.73183C21.3183 2.9574 22.0112 4.68906 21.9999 6.48272C21.9905 7.95844 21.4017 9.54113 20.2498 11.1868C19.3589 12.4596 18.1261 13.7801 16.5855 15.1117C13.9856 17.3589 11.4315 18.8504 11.324 18.9128C11.2239 18.9709 11.1119 19 11 19Z" fill="white"/>
</svg>
